<?xml version="1.0" encoding="UTF-8" standalone="no"?>
<!-- Created with Inkscape (http://www.inkscape.org/) -->

<svg
   width="210mm"
   height="297mm"
   viewBox="0 0 210 297"
   version="1.1"
   id="svg1"
   inkscape:version="1.3 (0e150ed, 2023-07-21)"
   sodipodi:docname="first-christian.svg"
   xmlns:inkscape="http://www.inkscape.org/namespaces/inkscape"
   xmlns:sodipodi="http://sodipodi.sourceforge.net/DTD/sodipodi-0.dtd"
   xmlns="http://www.w3.org/2000/svg"
   xmlns:svg="http://www.w3.org/2000/svg">
  <sodipodi:namedview
     id="namedview1"
     pagecolor="#ffffff"
     bordercolor="#000000"
     borderopacity="0.25"
     inkscape:showpageshadow="2"
     inkscape:pageopacity="0.0"
     inkscape:pagecheckerboard="0"
     inkscape:deskcolor="#d1d1d1"
     inkscape:document-units="mm"
     showguides="true"
     inkscape:zoom="0.52821453"
     inkscape:cx="419.3372"
     inkscape:cy="481.81181"
     inkscape:window-width="1472"
     inkscape:window-height="892"
     inkscape:window-x="0"
     inkscape:window-y="64"
     inkscape:window-maximized="0"
     inkscape:current-layer="layer1" />
  <defs
     id="defs1" />
  <g
     inkscape:label="Layer 1"
     inkscape:groupmode="layer"
     id="layer1">
    <g
       id="g11"
       transform="matrix(1,0,0,1.0121483,-0.42008505,155.85148)">
      <g
         id="g10">
        <rect
           style="fill:#818181;fill-opacity:1;stroke-width:1.59966"
           id="rect9"
           width="122"
           height="138.31966"
           x="0"
           y="0" />
        <g
           id="g9"
           transform="matrix(1,0,0,1.1388416,0,-0.27768322)">
          <rect
             style="fill:#eeeeee;fill-opacity:1;stroke-width:0.241531"
             id="rect4"
             width="8"
             height="10"
             x="2"
             y="2" />
          <rect
             style="fill:#eeeeee;fill-opacity:1;stroke-width:0.241531"
             id="rect4-5"
             width="8"
             height="10"
             x="22"
             y="2" />
          <rect
             style="fill:#eeeeee;fill-opacity:1;stroke-width:0.241531"
             id="rect4-2"
             width="8"
             height="10"
             x="12"
             y="2" />
          <rect
             style="fill:#eeeeee;fill-opacity:1;stroke-width:0.241531"
             id="rect4-3"
             width="8"
             height="10"
             x="32"
             y="2" />
          <rect
             style="fill:#eeeeee;fill-opacity:1;stroke-width:0.241531"
             id="rect4-4"
             width="8"
             height="10"
             x="42"
             y="2" />
          <rect
             style="fill:#eeeeee;fill-opacity:1;stroke-width:0.241531"
             id="rect4-9"
             width="8"
             height="10"
             x="62"
             y="2" />
          <rect
             style="fill:#eeeeee;fill-opacity:1;stroke-width:0.241531"
             id="rect4-0"
             width="8"
             height="10"
             x="52"
             y="2" />
          <rect
             style="fill:#eeeeee;fill-opacity:1;stroke-width:0.241531"
             id="rect4-6"
             width="8"
             height="10"
             x="72"
             y="2" />
          <rect
             style="fill:#eeeeee;fill-opacity:1;stroke-width:0.241531"
             id="rect4-98"
             width="8"
             height="10"
             x="82"
             y="2" />
          <rect
             style="fill:#eeeeee;fill-opacity:1;stroke-width:0.241531"
             id="rect4-1"
             width="8"
             height="10"
             x="92"
             y="2" />
          <rect
             style="fill:#eeeeee;fill-opacity:1;stroke-width:0.241531"
             id="rect4-15"
             width="8"
             height="10"
             x="102"
             y="2" />
          <rect
             style="fill:#eeeeee;fill-opacity:1;stroke-width:0.241531"
             id="rect4-37"
             width="8"
             height="10"
             x="112"
             y="2" />
          <rect
             style="fill:#eeeeee;fill-opacity:1;stroke-width:0.241531"
             id="rect4-09"
             width="8"
             height="10"
             x="2"
             y="38" />
          <rect
             style="fill:#eeeeee;fill-opacity:1;stroke-width:0.241531"
             id="rect4-5-5"
             width="8"
             height="10"
             x="22"
             y="38" />
          <rect
             style="fill:#eeeeee;fill-opacity:1;stroke-width:0.241531"
             id="rect4-2-7"
             width="8"
             height="10"
             x="12"
             y="38" />
          <rect
             style="fill:#eeeeee;fill-opacity:1;stroke-width:0.241531"
             id="rect4-3-2"
             width="8"
             height="10"
             x="32"
             y="38" />
          <rect
             style="fill:#eeeeee;fill-opacity:1;stroke-width:0.241531"
             id="rect4-4-9"
             width="8"
             height="10"
             x="42"
             y="38" />
          <rect
             style="fill:#eeeeee;fill-opacity:1;stroke-width:0.241531"
             id="rect4-9-7"
             width="8"
             height="10"
             x="62"
             y="38" />
          <rect
             style="fill:#eeeeee;fill-opacity:1;stroke-width:0.241531"
             id="rect4-0-6"
             width="8"
             height="10"
             x="52"
             y="38" />
          <rect
             style="fill:#eeeeee;fill-opacity:1;stroke-width:0.241531"
             id="rect4-6-8"
             width="8"
             height="10"
             x="72"
             y="38" />
          <rect
             style="fill:#eeeeee;fill-opacity:1;stroke-width:0.241531"
             id="rect4-98-2"
             width="8"
             height="10"
             x="82"
             y="38" />
          <rect
             style="fill:#eeeeee;fill-opacity:1;stroke-width:0.241531"
             id="rect4-1-9"
             width="8"
             height="10"
             x="92"
             y="38" />
          <rect
             style="fill:#eeeeee;fill-opacity:1;stroke-width:0.241531"
             id="rect4-15-9"
             width="8"
             height="10"
             x="102"
             y="38" />
          <rect
             style="fill:#eeeeee;fill-opacity:1;stroke-width:0.241531"
             id="rect4-37-8"
             width="8"
             height="10"
             x="112"
             y="38" />
          <rect
             style="fill:#eeeeee;fill-opacity:1;stroke-width:0.241531"
             id="rect4-61"
             width="8"
             height="10"
             x="2"
             y="50" />
          <rect
             style="fill:#eeeeee;fill-opacity:1;stroke-width:0.241531"
             id="rect4-5-7"
             width="8"
             height="10"
             x="22"
             y="50" />
          <rect
             style="fill:#eeeeee;fill-opacity:1;stroke-width:0.241531"
             id="rect4-2-6"
             width="8"
             height="10"
             x="12"
             y="50" />
          <rect
             style="fill:#eeeeee;fill-opacity:1;stroke-width:0.241531"
             id="rect4-3-5"
             width="8"
             height="10"
             x="32"
             y="50" />
          <rect
             style="fill:#eeeeee;fill-opacity:1;stroke-width:0.241531"
             id="rect4-4-0"
             width="8"
             height="10"
             x="42"
             y="50" />
          <rect
             style="fill:#eeeeee;fill-opacity:1;stroke-width:0.241531"
             id="rect4-9-4"
             width="8"
             height="10"
             x="62"
             y="50" />
          <rect
             style="fill:#eeeeee;fill-opacity:1;stroke-width:0.241531"
             id="rect4-0-5"
             width="8"
             height="10"
             x="52"
             y="50" />
          <rect
             style="fill:#eeeeee;fill-opacity:1;stroke-width:0.241531"
             id="rect4-6-1"
             width="8"
             height="10"
             x="72"
             y="50" />
          <rect
             style="fill:#eeeeee;fill-opacity:1;stroke-width:0.241531"
             id="rect4-98-23"
             width="8"
             height="10"
             x="82"
             y="50" />
          <rect
             style="fill:#eeeeee;fill-opacity:1;stroke-width:0.241531"
             id="rect4-1-7"
             width="8"
             height="10"
             x="92"
             y="50" />
          <rect
             style="fill:#eeeeee;fill-opacity:1;stroke-width:0.241531"
             id="rect4-15-2"
             width="8"
             height="10"
             x="102"
             y="50" />
          <rect
             style="fill:#eeeeee;fill-opacity:1;stroke-width:0.241531"
             id="rect4-37-4"
             width="8"
             height="10"
             x="112"
             y="50" />
          <rect
             style="fill:#eeeeee;fill-opacity:1;stroke-width:0.241531"
             id="rect4-03"
             width="8"
             height="10"
             x="2"
             y="26" />
          <rect
             style="fill:#eeeeee;fill-opacity:1;stroke-width:0.241531"
             id="rect4-5-9"
             width="8"
             height="10"
             x="22"
             y="26" />
          <rect
             style="fill:#eeeeee;fill-opacity:1;stroke-width:0.241531"
             id="rect4-2-4"
             width="8"
             height="10"
             x="12"
             y="26" />
          <rect
             style="fill:#eeeeee;fill-opacity:1;stroke-width:0.241531"
             id="rect4-3-9"
             width="8"
             height="10"
             x="32"
             y="26" />
          <rect
             style="fill:#eeeeee;fill-opacity:1;stroke-width:0.241531"
             id="rect4-4-6"
             width="8"
             height="10"
             x="42"
             y="26" />
          <rect
             style="fill:#eeeeee;fill-opacity:1;stroke-width:0.241531"
             id="rect4-9-5"
             width="8"
             height="10"
             x="62"
             y="26" />
          <rect
             style="fill:#eeeeee;fill-opacity:1;stroke-width:0.241531"
             id="rect4-0-1"
             width="8"
             height="10"
             x="52"
             y="26" />
          <rect
             style="fill:#eeeeee;fill-opacity:1;stroke-width:0.241531"
             id="rect4-6-3"
             width="8"
             height="10"
             x="72"
             y="26" />
          <rect
             style="fill:#eeeeee;fill-opacity:1;stroke-width:0.241531"
             id="rect4-98-26"
             width="8"
             height="10"
             x="82"
             y="26" />
          <rect
             style="fill:#eeeeee;fill-opacity:1;stroke-width:0.241531"
             id="rect4-1-90"
             width="8"
             height="10"
             x="92"
             y="26" />
          <rect
             style="fill:#eeeeee;fill-opacity:1;stroke-width:0.241531"
             id="rect4-15-0"
             width="8"
             height="10"
             x="102"
             y="26" />
          <rect
             style="fill:#eeeeee;fill-opacity:1;stroke-width:0.241531"
             id="rect4-37-3"
             width="8"
             height="10"
             x="112"
             y="26" />
          <rect
             style="fill:#eeeeee;fill-opacity:1;stroke-width:0.241531"
             id="rect4-12"
             width="8"
             height="10"
             x="2"
             y="62" />
          <rect
             style="fill:#eeeeee;fill-opacity:1;stroke-width:0.241531"
             id="rect4-5-6"
             width="8"
             height="10"
             x="22"
             y="62" />
          <rect
             style="fill:#eeeeee;fill-opacity:1;stroke-width:0.241531"
             id="rect4-2-9"
             width="8"
             height="10"
             x="12"
             y="62" />
          <rect
             style="fill:#eeeeee;fill-opacity:1;stroke-width:0.241531"
             id="rect4-3-1"
             width="8"
             height="10"
             x="32"
             y="62" />
          <rect
             style="fill:#eeeeee;fill-opacity:1;stroke-width:0.241531"
             id="rect4-4-90"
             width="8"
             height="10"
             x="42"
             y="62" />
          <rect
             style="fill:#eeeeee;fill-opacity:1;stroke-width:0.241531"
             id="rect4-9-6"
             width="8"
             height="10"
             x="62"
             y="62" />
          <rect
             style="fill:#eeeeee;fill-opacity:1;stroke-width:0.241531"
             id="rect4-0-17"
             width="8"
             height="10"
             x="52"
             y="62" />
          <rect
             style="fill:#eeeeee;fill-opacity:1;stroke-width:0.241531"
             id="rect4-6-38"
             width="8"
             height="10"
             x="72"
             y="62" />
          <rect
             style="fill:#eeeeee;fill-opacity:1;stroke-width:0.241531"
             id="rect4-98-7"
             width="8"
             height="10"
             x="82"
             y="62" />
          <rect
             style="fill:#eeeeee;fill-opacity:1;stroke-width:0.241531"
             id="rect4-1-0"
             width="8"
             height="10"
             x="92"
             y="62" />
          <rect
             style="fill:#eeeeee;fill-opacity:1;stroke-width:0.241531"
             id="rect4-15-3"
             width="8"
             height="10"
             x="102"
             y="62" />
          <rect
             style="fill:#eeeeee;fill-opacity:1;stroke-width:0.241531"
             id="rect4-37-6"
             width="8"
             height="10"
             x="112"
             y="62" />
          <rect
             style="fill:#eeeeee;fill-opacity:1;stroke-width:0.241531"
             id="rect4-610"
             width="8"
             height="10"
             x="2"
             y="14" />
          <rect
             style="fill:#eeeeee;fill-opacity:1;stroke-width:0.241531"
             id="rect4-5-2"
             width="8"
             height="10"
             x="22"
             y="14" />
          <rect
             style="fill:#eeeeee;fill-opacity:1;stroke-width:0.241531"
             id="rect4-2-40"
             width="8"
             height="10"
             x="12"
             y="14" />
          <rect
             style="fill:#eeeeee;fill-opacity:1;stroke-width:0.241531"
             id="rect4-3-4"
             width="8"
             height="10"
             x="32"
             y="14" />
          <rect
             style="fill:#eeeeee;fill-opacity:1;stroke-width:0.241531"
             id="rect4-4-3"
             width="8"
             height="10"
             x="42"
             y="14" />
          <rect
             style="fill:#eeeeee;fill-opacity:1;stroke-width:0.241531"
             id="rect4-9-1"
             width="8"
             height="10"
             x="62"
             y="14" />
          <rect
             style="fill:#eeeeee;fill-opacity:1;stroke-width:0.241531"
             id="rect4-0-7"
             width="8"
             height="10"
             x="52"
             y="14" />
          <rect
             style="fill:#eeeeee;fill-opacity:1;stroke-width:0.241531"
             id="rect4-6-9"
             width="8"
             height="10"
             x="72"
             y="14" />
          <rect
             style="fill:#eeeeee;fill-opacity:1;stroke-width:0.241531"
             id="rect4-98-4"
             width="8"
             height="10"
             x="82"
             y="14" />
          <rect
             style="fill:#eeeeee;fill-opacity:1;stroke-width:0.241531"
             id="rect4-1-70"
             width="8"
             height="10"
             x="92"
             y="14" />
          <rect
             style="fill:#eeeeee;fill-opacity:1;stroke-width:0.241531"
             id="rect4-15-1"
             width="8"
             height="10"
             x="102"
             y="14" />
          <rect
             style="fill:#eeeeee;fill-opacity:1;stroke-width:0.241531"
             id="rect4-37-1"
             width="8"
             height="10"
             x="112"
             y="14" />
          <rect
             style="fill:#eeeeee;fill-opacity:1;stroke-width:0.241531"
             id="rect4-97"
             width="8"
             height="10"
             x="2"
             y="74" />
          <rect
             style="fill:#eeeeee;fill-opacity:1;stroke-width:0.241531"
             id="rect4-5-72"
             width="8"
             height="10"
             x="22"
             y="74" />
          <rect
             style="fill:#eeeeee;fill-opacity:1;stroke-width:0.241531"
             id="rect4-2-0"
             width="8"
             height="10"
             x="12"
             y="74" />
          <rect
             style="fill:#eeeeee;fill-opacity:1;stroke-width:0.241531"
             id="rect4-3-90"
             width="8"
             height="10"
             x="32"
             y="74" />
          <rect
             style="fill:#eeeeee;fill-opacity:1;stroke-width:0.241531"
             id="rect4-4-7"
             width="8"
             height="10"
             x="42"
             y="74" />
          <rect
             style="fill:#eeeeee;fill-opacity:1;stroke-width:0.241531"
             id="rect4-9-16"
             width="8"
             height="10"
             x="62"
             y="74" />
          <rect
             style="fill:#eeeeee;fill-opacity:1;stroke-width:0.241531"
             id="rect4-0-0"
             width="8"
             height="10"
             x="52"
             y="74" />
          <rect
             style="fill:#eeeeee;fill-opacity:1;stroke-width:0.241531"
             id="rect4-6-92"
             width="8"
             height="10"
             x="72"
             y="74" />
          <rect
             style="fill:#eeeeee;fill-opacity:1;stroke-width:0.241531"
             id="rect4-98-9"
             width="8"
             height="10"
             x="82"
             y="74" />
          <rect
             style="fill:#eeeeee;fill-opacity:1;stroke-width:0.241531"
             id="rect4-1-6"
             width="8"
             height="10"
             x="92"
             y="74" />
          <rect
             style="fill:#eeeeee;fill-opacity:1;stroke-width:0.241531"
             id="rect4-15-02"
             width="8"
             height="10"
             x="102"
             y="74" />
          <rect
             style="fill:#eeeeee;fill-opacity:1;stroke-width:0.241531"
             id="rect4-37-84"
             width="8"
             height="10"
             x="112"
             y="74" />
          <rect
             style="fill:#eeeeee;fill-opacity:1;stroke-width:0.241531"
             id="rect4-11"
             width="8"
             height="10"
             x="2"
             y="86" />
          <rect
             style="fill:#eeeeee;fill-opacity:1;stroke-width:0.241531"
             id="rect4-5-1"
             width="8"
             height="10"
             x="22"
             y="86" />
          <rect
             style="fill:#eeeeee;fill-opacity:1;stroke-width:0.241531"
             id="rect4-2-5"
             width="8"
             height="10"
             x="12"
             y="86" />
          <rect
             style="fill:#eeeeee;fill-opacity:1;stroke-width:0.241531"
             id="rect4-3-17"
             width="8"
             height="10"
             x="32"
             y="86" />
          <rect
             style="fill:#eeeeee;fill-opacity:1;stroke-width:0.241531"
             id="rect4-4-08"
             width="8"
             height="10"
             x="42"
             y="86" />
          <rect
             style="fill:#eeeeee;fill-opacity:1;stroke-width:0.241531"
             id="rect4-9-53"
             width="8"
             height="10"
             x="62"
             y="86" />
          <rect
             style="fill:#eeeeee;fill-opacity:1;stroke-width:0.241531"
             id="rect4-0-79"
             width="8"
             height="10"
             x="52"
             y="86" />
          <rect
             style="fill:#eeeeee;fill-opacity:1;stroke-width:0.241531"
             id="rect4-6-6"
             width="8"
             height="10"
             x="72"
             y="86" />
          <rect
             style="fill:#eeeeee;fill-opacity:1;stroke-width:0.241531"
             id="rect4-98-3"
             width="8"
             height="10"
             x="82"
             y="86" />
          <rect
             style="fill:#eeeeee;fill-opacity:1;stroke-width:0.241531"
             id="rect4-1-1"
             width="8"
             height="10"
             x="92"
             y="86" />
          <rect
             style="fill:#eeeeee;fill-opacity:1;stroke-width:0.241531"
             id="rect4-15-5"
             width="8"
             height="10"
             x="102"
             y="86" />
          <rect
             style="fill:#eeeeee;fill-opacity:1;stroke-width:0.241531"
             id="rect4-37-80"
             width="8"
             height="10"
             x="112"
             y="86" />
          <rect
             style="fill:#eeeeee;fill-opacity:1;stroke-width:0.241531"
             id="rect4-11-9"
             width="8"
             height="10"
             x="2"
             y="110" />
          <rect
             style="fill:#eeeeee;fill-opacity:1;stroke-width:0.241531"
             id="rect4-5-1-9"
             width="8"
             height="10"
             x="22"
             y="98" />
          <rect
             style="fill:#eeeeee;fill-opacity:1;stroke-width:0.358248"
             id="rect4-2-5-9"
             width="8"
             height="22"
             x="12"
             y="98" />
          <rect
             style="fill:#eeeeee;fill-opacity:1;stroke-width:0.241531"
             id="rect4-3-17-6"
             width="8"
             height="10"
             x="22"
             y="110" />
          <rect
             style="fill:#eeeeee;fill-opacity:1;stroke-width:0.241531"
             id="rect4-4-08-1"
             width="8"
             height="10"
             x="102"
             y="98" />
          <rect
             style="fill:#eeeeee;fill-opacity:1;stroke-width:0.241531"
             id="rect4-9-53-7"
             width="8"
             height="10"
             x="102"
             y="110" />
          <rect
             style="fill:#eeeeee;fill-opacity:1;stroke-width:0.241531"
             id="rect4-0-79-3"
             width="8"
             height="10"
             x="112"
             y="98" />
          <rect
             style="fill:#eeeeee;fill-opacity:1;stroke-width:0.241531"
             id="rect4-6-6-9"
             width="8"
             height="10"
             x="112"
             y="110" />
          <rect
             style="fill:#eeeeee;fill-opacity:1;stroke-width:0.241531"
             id="rect4-37-80-6"
             width="8"
             height="10"
             x="2"
             y="98" />
        </g>
      </g>
      <path
         style="fill:#ad6d2f;fill-opacity:0.992565;stroke-width:1.58772"
         d="M 0.79386116,261.18032 V 0.79386116 H 230.21974 459.64561 V 261.18032 521.56678 H 230.21974 0.79386116 Z M 38.899197,494.5755 V 472.34739 H 23.021974 7.1447505 v 22.22811 22.22812 H 23.021974 38.899197 Z M 77.004533,468.37809 V 419.95256 H 61.12731 45.250086 v 48.42553 48.42553 H 61.12731 77.004533 Z M 113.52215,494.5755 V 472.34739 H 97.644923 81.7677 v 22.22811 22.22812 h 15.877223 15.877227 z m 303.25496,0 v -22.22811 h -15.87722 -15.87723 v 22.22811 22.22812 h 15.87723 15.87722 z m 38.10534,0 V 472.34739 H 439.00522 423.128 v 22.22811 22.22812 h 15.87722 15.87723 z M 38.899197,442.18067 V 419.95256 H 23.021974 7.1447505 v 22.22811 22.22811 H 23.021974 38.899197 Z m 74.622953,0 V 419.95256 H 97.644923 81.7677 v 22.22811 22.22811 h 15.877223 15.877227 z m 303.25496,0 v -22.22811 h -15.87722 -15.87723 v 22.22811 22.22811 h 15.87723 15.87722 z m 38.10534,0 V 419.95256 H 439.00522 423.128 v 22.22811 22.22811 h 15.87722 15.87723 z M 38.545861,390.97662 38.105336,368.35158 H 23.021974 7.9386116 l -0.440524,22.62504 -0.440524,22.62505 h 15.9644104 15.96441 z m 37.664811,-0.39693 V 368.35158 H 61.12731 46.043947 l -0.440878,22.68307 -0.440877,22.68306 15.524239,-0.45494 15.524241,-0.45497 z m 36.958138,0.39693 -0.44052,-22.62504 H 97.644923 82.561561 L 82.114857,388.908 c -0.245687,11.30604 -0.08949,21.48731 0.3471,22.62504 0.575621,1.50005 4.965266,2.06863 15.970591,2.06863 h 15.176782 z m 38.10534,0 -0.44053,-22.62504 H 135.75026 120.6669 l -0.44053,22.62504 -0.44052,22.62505 h 15.96441 15.96441 z m 38.10534,0 -0.44053,-22.62504 h -15.08337 -15.08336 l -0.44053,22.62504 -0.44051,22.62505 h 15.9644 15.96441 z m 38.10533,0 -0.44053,-22.62504 h -15.08336 -15.08336 l -0.44053,22.62504 -0.44051,22.62505 h 15.9644 15.96441 z m 37.66481,-0.39693 V 368.35158 H 250.06627 234.9829 l -0.44087,22.68307 -0.44088,22.68306 15.52424,-0.45494 15.52424,-0.45497 z m 36.95814,0.39693 -0.44053,-22.62504 h -15.08336 -15.08336 l -0.44671,20.55642 c -0.24568,11.30604 -0.0895,21.48731 0.34711,22.62504 0.57561,1.50005 4.96527,2.06863 15.97058,2.06863 h 15.17679 z m 38.10534,0 -0.44053,-22.62504 h -15.08336 -15.08337 l -0.44053,22.62504 -0.44051,22.62505 h 15.96441 15.9644 z m 38.10533,0 -0.44053,-22.62504 h -15.08336 -15.08336 l -0.44053,22.62504 -0.44051,22.62505 h 15.9644 15.96441 z m 38.10534,0 -0.44053,-22.62504 h -15.08336 -15.08336 l -0.44053,22.62504 -0.44052,22.62505 h 15.96441 15.9644 z m 37.66481,-0.39693 v -22.22811 h -15.08337 -15.08336 l -0.44088,22.68307 -0.44088,22.68306 15.52424,-0.45494 15.52425,-0.45497 z M 38.899197,338.97872 V 316.7506 H 23.021974 7.1447505 v 22.22812 22.22811 H 23.021974 38.899197 Z m 38.105336,0 V 316.7506 H 61.12731 45.250086 v 22.22812 22.22811 H 61.12731 77.004533 Z m 36.517617,0 V 316.7506 H 97.644923 81.7677 v 22.22812 22.22811 h 15.877223 15.877227 z m 38.10533,0 V 316.7506 h -15.87722 -15.87722 v 22.22812 22.22811 h 15.87722 15.87722 z m 38.10534,0 V 316.7506 h -15.87723 -15.87722 v 22.22812 22.22811 h 15.87722 15.87723 z m 38.10533,0 V 316.7506 h -15.87722 -15.87722 v 22.22812 22.22811 h 15.87722 15.87722 z m 38.10534,0 V 316.7506 h -15.87722 -15.87723 v 22.22812 22.22811 h 15.87723 15.87722 z m 36.51761,0 V 316.7506 h -15.87722 -15.87722 v 22.22812 22.22811 h 15.87722 15.87722 z m 38.10534,0 V 316.7506 h -15.87722 -15.87723 v 22.22812 22.22811 h 15.87723 15.87722 z m 38.10533,0 V 316.7506 h -15.87722 -15.87722 v 22.22812 22.22811 h 15.87722 15.87722 z m 38.10534,0 V 316.7506 h -15.87722 -15.87723 v 22.22812 22.22811 h 15.87723 15.87722 z m 38.10534,0 V 316.7506 H 439.00522 423.128 v 22.22812 22.22811 h 15.87722 15.87723 z M 38.545861,286.98081 38.986384,264.35577 H 23.065568 7.1447505 v 23.07946 23.07947 l 15.4802925,-0.45442 15.480293,-0.45443 z m 37.664811,0.39693 v -22.22811 l -15.480293,-0.45442 -15.480293,-0.45443 v 23.13696 23.13696 l 15.480293,-0.45442 15.480293,-0.45443 z m 37.311478,-0.0575 v -23.07947 l -15.480296,0.45443 -15.480293,0.45442 -0.446704,20.55641 c -0.245687,11.30605 -0.08949,21.48732 0.3471,22.62505 0.5754,1.49947 4.957491,2.06862 15.926997,2.06862 h 15.133196 z m 38.10533,0.0575 v -23.02197 h -15.87722 -15.87722 v 21.96348 c 0,12.07994 0.47631,22.43982 1.05848,23.02198 0.58216,0.58217 7.72691,1.05848 15.87722,1.05848 h 14.81874 z m 38.10534,0 v -23.02197 h -15.87723 -15.87722 v 23.02197 23.02197 h 15.87722 15.87723 z m 37.752,-0.39693 0.44052,-22.62504 h -15.92081 -15.92082 v 23.07946 23.07947 l 15.48029,-0.45442 15.48029,-0.45443 z m 37.66481,0.39693 v -22.22811 l -15.48029,-0.45442 -15.4803,-0.45443 v 23.13696 23.13696 l 15.4803,-0.45442 15.48029,-0.45443 z m 37.31147,-0.0575 v -23.07947 l -15.48029,0.45443 -15.48029,0.45442 -0.44671,20.55641 c -0.24568,11.30605 -0.0895,21.48732 0.34711,22.62505 0.57539,1.49947 4.95749,2.06862 15.927,2.06862 h 15.13318 z m 38.10534,0.0575 v -23.02197 h -15.87722 -15.87723 v 21.96348 c 0,12.07994 0.47632,22.43982 1.05849,23.02198 0.58215,0.58217 7.7269,1.05848 15.87722,1.05848 h 14.81874 z m 38.10533,0 v -23.02197 h -15.87722 -15.87722 v 21.96348 c 0,12.07994 0.47632,22.43982 1.05849,23.02198 0.58215,0.58217 7.7269,1.05848 15.87722,1.05848 h 14.81873 z m 37.75201,-0.39693 0.44051,-22.62504 h -15.9208 -15.92083 v 23.07946 23.07947 l 15.4803,-0.45442 15.48029,-0.45443 z m 37.66481,0.39693 v -22.22811 l -15.4803,-0.45442 -15.48029,-0.45443 v 23.13696 23.13696 l 15.48029,-0.45442 15.4803,-0.45443 z M 38.899197,235.77677 V 213.54865 H 23.021974 7.1447505 v 22.22812 22.22811 H 23.021974 38.899197 Z m 38.105336,0 V 213.54865 H 61.12731 45.250086 v 22.22812 22.22811 H 61.12731 77.004533 Z m 36.517617,0 V 213.54865 H 97.644923 81.7677 v 22.22812 22.22811 h 15.877223 15.877227 z m 38.10533,0 v -22.22812 h -15.87722 -15.87722 v 22.22812 22.22811 h 15.87722 15.87722 z m 38.10534,0 v -22.22812 h -15.87723 -15.87722 v 22.22812 22.22811 h 15.87722 15.87723 z m 38.10533,0 v -22.22812 h -15.87722 -15.87722 v 22.22812 22.22811 h 15.87722 15.87722 z m 38.10534,0 v -22.22812 h -15.87722 -15.87723 v 22.22812 22.22811 h 15.87723 15.87722 z m 36.51761,0 v -22.22812 h -15.87722 -15.87722 v 22.22812 22.22811 h 15.87722 15.87722 z m 38.10534,0 v -22.22812 h -15.87722 -15.87723 v 22.22812 22.22811 h 15.87723 15.87722 z m 38.10533,0 v -22.22812 h -15.87722 -15.87722 v 22.22812 22.22811 h 15.87722 15.87722 z m 38.10534,0 v -22.22812 h -15.87722 -15.87723 v 22.22812 22.22811 h 15.87723 15.87722 z m 38.10534,0 V 213.54865 H 439.00522 423.128 v 22.22812 22.22811 h 15.87722 15.87723 z M 38.899197,183.38193 V 161.15382 H 23.021974 7.1447505 v 22.22811 22.22811 H 23.021974 38.899197 Z m 38.105336,0 V 161.15382 H 61.12731 45.250086 v 22.22811 22.22811 H 61.12731 77.004533 Z m 36.517617,0 V 161.15382 H 97.644923 81.7677 v 22.22811 22.22811 h 15.877223 15.877227 z m 38.10533,0 v -22.22811 h -15.87722 -15.87722 v 22.22811 22.22811 h 15.87722 15.87722 z m 38.10534,0 v -22.22811 h -15.87723 -15.87722 v 22.22811 22.22811 h 15.87722 15.87723 z m 38.10533,0 v -22.22811 h -15.87722 -15.87722 v 22.22811 22.22811 h 15.87722 15.87722 z m 38.10534,0 v -22.22811 h -15.87722 -15.87723 v 22.22811 22.22811 h 15.87723 15.87722 z m 36.51761,-0.0575 v -22.28561 l -15.48029,0.45443 -15.48029,0.45442 -0.44174,21.83118 -0.44173,21.83118 h 15.92202 15.92203 z m 38.10534,0.0575 v -22.22811 h -15.87722 -15.87723 v 22.22811 22.22811 h 15.87723 15.87722 z m 38.10533,0 v -22.22811 h -15.87722 -15.87722 v 22.22811 22.22811 h 15.87722 15.87722 z m 38.10534,0 v -22.22811 h -15.87722 -15.87723 v 22.22811 22.22811 h 15.87723 15.87722 z m 38.10534,0 V 161.15382 H 439.00522 423.128 v 22.22811 22.22811 h 15.87722 15.87723 z M 38.899197,132.57481 V 110.3467 H 23.021974 7.1447505 v 22.22811 22.22812 H 23.021974 38.899197 Z m 38.105336,0 V 110.3467 H 61.12731 45.250086 v 22.22811 22.22812 H 61.12731 77.004533 Z m 36.517617,0 V 110.3467 H 97.644923 81.7677 v 22.22811 22.22812 h 15.877223 15.877227 z m 38.10533,0 V 110.3467 h -15.87722 -15.87722 v 22.22811 22.22812 h 15.87722 15.87722 z m 38.10534,0 V 110.3467 h -15.87723 -15.87722 v 22.22811 22.22812 h 15.87722 15.87723 z m 38.10533,0 V 110.3467 h -15.87722 -15.87722 v 22.22811 22.22812 h 15.87722 15.87722 z m 38.10534,0 V 110.3467 h -15.87722 -15.87723 v 22.22811 22.22812 h 15.87723 15.87722 z m 36.51761,0 V 110.3467 h -15.87722 -15.87722 v 22.22811 22.22812 h 15.87722 15.87722 z m 38.10534,0 V 110.3467 h -15.87722 -15.87723 v 22.22811 22.22812 h 15.87723 15.87722 z m 38.10533,0 V 110.3467 h -15.87722 -15.87722 v 22.22811 22.22812 h 15.87722 15.87722 z m 38.10534,0 V 110.3467 h -15.87722 -15.87723 v 22.22811 22.22812 h 15.87723 15.87722 z m 38.10534,0 V 110.3467 H 439.00522 423.128 v 22.22811 22.22812 h 15.87722 15.87723 z M 38.899197,80.179978 V 57.951865 H 23.021974 7.1447505 V 80.179978 102.40809 H 23.021974 38.899197 Z m 38.105336,0 V 57.951865 H 61.12731 45.250086 V 80.179978 102.40809 H 61.12731 77.004533 Z m 36.517617,0 V 57.951865 H 97.644923 81.7677 v 22.228113 22.228112 h 15.877223 15.877227 z m 38.10533,0 V 57.951865 h -15.87722 -15.87722 v 22.228113 22.228112 h 15.87722 15.87722 z m 38.10534,0 V 57.951865 h -15.87723 -15.87722 v 22.228113 22.228112 h 15.87722 15.87723 z m 38.10533,0 V 57.951865 h -15.87722 -15.87722 v 22.228113 22.228112 h 15.87722 15.87722 z m 38.10534,0 V 57.951865 h -15.87722 -15.87723 v 22.228113 22.228112 h 15.87723 15.87722 z m 36.51761,0 V 57.951865 h -15.87722 -15.87722 v 22.228113 22.228112 h 15.87722 15.87722 z m 38.10534,0 V 57.951865 h -15.87722 -15.87723 v 22.228113 22.228112 h 15.87723 15.87722 z m 38.10533,0 V 57.951865 h -15.87722 -15.87722 v 22.228113 22.228112 h 15.87722 15.87722 z m 38.10534,0 V 57.951865 h -15.87722 -15.87723 v 22.228113 22.228112 h 15.87723 15.87722 z m 38.10534,0 V 57.951865 H 439.00522 423.128 v 22.228113 22.228112 h 15.87722 15.87723 z M 38.899197,29.372863 V 7.1447505 H 23.021974 7.1447505 V 29.372863 51.600976 H 23.021974 38.899197 Z m 38.105336,0 V 7.1447505 H 61.12731 45.250086 V 29.372863 51.600976 H 61.12731 77.004533 Z m 36.517617,0 V 7.1447505 H 97.644923 81.7677 V 29.372863 51.600976 h 15.877223 15.877227 z m 38.10533,0 V 7.1447505 H 135.75026 119.87304 V 29.372863 51.600976 h 15.87722 15.87722 z m 38.10534,0 V 7.1447505 H 173.85559 157.97837 V 29.372863 51.600976 h 15.87722 15.87723 z m 38.10533,0 V 7.1447505 H 211.96093 196.08371 V 29.372863 51.600976 h 15.87722 15.87722 z m 38.10534,0 V 7.1447505 H 250.06627 234.18904 V 29.372863 51.600976 h 15.87723 15.87722 z m 36.51761,0 V 7.1447505 H 286.58388 270.70666 V 29.372863 51.600976 h 15.87722 15.87722 z m 38.10534,0 V 7.1447505 H 324.68922 308.81199 V 29.372863 51.600976 h 15.87723 15.87722 z m 38.10533,0 V 7.1447505 H 362.79455 346.91733 V 29.372863 51.600976 h 15.87722 15.87722 z m 38.10534,0 V 7.1447505 H 400.89989 385.02266 V 29.372863 51.600976 h 15.87723 15.87722 z m 38.10534,0 V 7.1447505 H 439.00522 423.128 V 29.372863 51.600976 h 15.87722 15.87723 z"
         id="path10"
         transform="scale(0.26458333)" />
      <rect
         style="fill:#cacaca;fill-opacity:1;stroke-width:0.215782"
         id="rect11"
         width="38"
         height="3.3606789"
         x="52"
         y="40" />
      <path
         style="fill:#c9c9c9;fill-opacity:1;stroke-width:0.416209"
         d="M 70,55.999999 V 16 h 1.260255 1.260253 V 55.999999 96 H 71.260255 70 Z"
         id="path11" />
    </g>
    <rect
       style="fill:#ac6e2f;fill-opacity:0.99;stroke-width:0.760015"
       id="rect12"
       width="44.10891"
       height="260"
       x="130.64639"
       y="34.867039" />
    <ellipse
       style="fill:#fff4f4;fill-opacity:0.98513;stroke-width:0.264583"
       id="path20"
       cx="29.826025"
       cy="38.647804"
       rx="13.442716"
       ry="13.022631" />
  </g>
</svg>
